<?xml version="1.0" standalone="no"?>
<!DOCTYPE svg PUBLIC "-//W3C//DTD SVG 20010904//EN"
 "http://www.w3.org/TR/2001/REC-SVG-20010904/DTD/svg10.dtd">
<svg version="1.0" xmlns="http://www.w3.org/2000/svg"
 width="612.000000pt" height="612.000000pt" viewBox="0 0 612.000000 612.000000"
 preserveAspectRatio="xMidYMid meet">

<g transform="translate(0.000000,612.000000) scale(0.100000,-0.100000)"
fill="#000000" stroke="none">
<path d="M1454 5580 c-58 -23 -58 -29 -54 -1342 0 -21 5 -28 20 -28 20 0 20 7
20 595 l0 594 303 3 c166 2 416 2 555 0 l252 -2 0 -885 0 -885 -430 0 c-336 0
-431 3 -434 13 -2 6 -14 80 -26 162 -24 165 -32 188 -73 219 -25 19 -45 21
-183 25 -85 2 -154 7 -154 12 0 5 18 9 41 9 36 0 39 2 25 15 -9 9 -41 18 -73
22 -67 6 -162 39 -164 56 -1 7 -1 18 0 24 1 7 -5 10 -13 7 -8 -3 -16 -1 -19 3
-3 5 -22 7 -41 5 -36 -4 -36 -5 -36 -51 0 -65 9 -89 33 -93 17 -2 23 -13 29
-47 5 -32 18 -54 46 -82 l39 -38 -55 -3 c-62 -3 -88 -28 -29 -28 18 0 37 -3
40 -6 9 -9 234 -8 286 1 l42 7 -2 -179 -1 -178 38 -32 37 -33 -41 0 c-30 0
-42 4 -42 15 0 22 -34 35 -94 35 l-56 0 0 115 c0 96 -3 115 -15 115 -12 0 -15
-19 -15 -115 l0 -115 -51 0 c-56 0 -89 -13 -89 -35 0 -12 -37 -15 -227 -18
-126 -1 269 -2 877 -2 608 0 1049 1 981 3 l-124 3 34 28 34 29 3 993 c2 654
-1 1006 -7 1029 -21 72 -3 70 -618 69 -301 0 -557 -4 -569 -9z m560 -63 c11
-8 17 -23 14 -38 -2 -19 -9 -24 -33 -24 -26 0 -30 4 -33 29 -5 41 20 56 52 33z
m-541 -1809 l15 -78 -24 0 c-24 0 -24 0 -23 113 1 119 4 116 32 -35z m115 4
c29 -77 29 -82 -14 -82 -29 0 -35 3 -30 16 3 9 6 40 6 70 0 30 3 54 8 54 4 0
17 -26 30 -58z m-5 -226 c18 -4 27 -13 27 -26 0 -18 -7 -20 -56 -20 -34 0 -53
4 -49 10 3 6 13 10 21 10 8 0 14 5 14 10 0 6 -7 10 -16 10 -8 0 -12 5 -9 10 4
6 14 9 23 6 10 -2 29 -7 45 -10z m124 -2 c-3 -3 -12 -4 -19 -1 -8 3 -5 6 6 6
11 1 17 -2 13 -5z m28 -4 c3 -5 1 -10 -4 -10 -6 0 -11 5 -11 10 0 6 2 10 4 10
3 0 8 -4 11 -10z m39 -6 c27 -27 18 -34 -44 -34 -36 0 -60 4 -60 11 0 6 17 9
43 8 35 -3 42 0 39 14 -4 21 2 21 22 1z m-564 -14 c0 -18 -7 -20 -55 -20 -39
0 -54 4 -52 13 4 20 20 27 65 27 35 0 42 -3 42 -20z m140 -1 c0 -16 -8 -19
-50 -19 -42 0 -50 3 -50 19 0 15 8 18 50 18 42 0 50 -3 50 -18z"/>
<path d="M1914 5171 c-45 -21 -65 -42 -45 -49 9 -3 8 -9 -5 -23 -16 -18 -15
-18 19 -16 40 4 49 -10 41 -63 -3 -17 -1 -30 5 -30 14 0 15 87 1 95 -5 3 -7
12 -3 20 3 8 2 22 -1 31 -6 15 -8 15 -26 -1 -17 -16 -20 -16 -20 -2 0 10 18
21 54 31 63 19 82 20 91 6 3 -5 1 -10 -4 -10 -6 0 -11 -7 -11 -15 0 -9 -9 -15
-24 -15 -14 0 -28 -5 -32 -12 -11 -18 -5 -91 8 -99 19 -12 20 -4 5 32 -17 42
-12 59 17 59 12 0 33 12 46 27 22 25 22 27 4 40 -25 18 -72 16 -120 -6z m0
-65 c-3 -9 -12 -16 -20 -16 -18 0 -18 5 2 25 19 19 27 15 18 -9z"/>
<path d="M1975 5160 c-3 -5 1 -10 9 -10 8 0 18 5 21 10 3 6 -1 10 -9 10 -8 0
-18 -4 -21 -10z"/>
<path d="M1940 5149 c0 -5 5 -7 10 -4 6 3 10 8 10 11 0 2 -4 4 -10 4 -5 0 -10
-5 -10 -11z"/>
<path d="M2071 5103 c2 -21 -1 -44 -5 -51 -4 -7 -3 -12 3 -12 12 0 31 32 31
52 0 10 -3 9 -11 -2 -8 -12 -9 -9 -5 12 3 15 1 30 -4 33 -7 4 -10 -7 -9 -32z"/>
<path d="M1837 5113 c-4 -3 -7 -13 -7 -22 1 -13 3 -13 11 2 11 19 8 33 -4 20z"/>
<path d="M1826 5035 c3 -22 10 -43 15 -46 5 -3 7 -14 3 -25 -5 -15 -4 -16 5
-4 5 8 13 11 17 7 9 -9 -15 -37 -32 -37 -8 0 -14 -5 -14 -11 0 -5 -14 -15 -30
-21 -29 -10 -30 -11 -12 -27 10 -9 17 -22 15 -29 -3 -7 1 -10 11 -6 9 3 16 10
16 16 0 5 16 34 36 65 19 30 34 56 32 58 -2 1 -12 7 -23 13 -10 5 -25 27 -32
49 l-12 38 5 -40z m8 -140 c-4 -8 -16 -15 -28 -15 -20 1 -20 1 4 15 31 18 30
18 24 0z"/>
<path d="M1885 4990 c3 -5 10 -10 16 -10 5 0 9 5 9 10 0 6 -7 10 -16 10 -8 0
-12 -4 -9 -10z"/>
<path d="M4502 4993 c-15 -6 -42 -56 -42 -78 0 -28 55 -75 88 -75 32 0 82 47
82 76 0 24 -28 71 -45 78 -19 7 -64 7 -83 -1z"/>
<path d="M4492 4809 c-42 -10 -122 -73 -122 -97 0 -16 45 -59 83 -79 43 -22
142 -23 182 -1 35 19 85 65 85 78 0 4 -11 22 -25 38 -46 54 -126 78 -203 61z"/>
<path d="M1194 4605 c10 -7 15 -18 11 -24 -3 -7 0 -8 9 -5 21 8 20 21 -3 34
-28 15 -39 12 -17 -5z"/>
<path d="M1239 4606 c7 -8 10 -20 6 -25 -3 -7 0 -8 9 -5 9 3 16 10 16 15 0 4
8 6 18 2 11 -4 14 -3 7 4 -5 6 -23 14 -39 17 -26 6 -28 5 -17 -8z"/>
<path d="M1085 4550 c-8 -16 -15 -39 -14 -52 0 -23 0 -23 12 2 10 24 11 23 16
-19 6 -41 31 -72 31 -37 0 18 30 36 59 36 12 0 21 6 21 14 0 21 -21 31 -31 15
-6 -10 -9 -11 -9 -1 0 6 -4 12 -10 12 -5 0 -7 -7 -3 -16 4 -10 -1 -17 -16 -21
-11 -3 -21 -10 -21 -16 0 -6 -3 -7 -7 -4 -3 4 2 16 12 27 17 19 17 20 0 20
-12 0 -15 5 -11 16 4 12 2 15 -9 10 -8 -3 -15 -1 -15 5 0 5 7 12 15 15 17 7
21 24 5 24 -5 0 -16 -13 -25 -30z"/>
<path d="M1662 4538 l3 -23 288 -3 287 -2 0 25 0 25 -291 0 -290 0 3 -22z"/>
<path d="M1297 4513 c-11 -13 -17 -27 -14 -30 3 -2 13 7 23 21 22 34 15 42 -9
9z"/>
<path d="M5026 4478 c-9 -35 -8 -38 20 -48 23 -9 25 -14 22 -62 -2 -43 0 -53
15 -56 9 -2 17 2 17 8 0 7 -7 10 -15 6 -9 -3 -15 0 -15 9 0 8 7 15 15 15 12 0
14 4 5 20 -6 10 -9 23 -9 27 4 18 -15 43 -33 43 -17 0 -19 5 -13 30 8 35 0 41
-9 8z"/>
<path d="M5129 4498 c-6 -12 -3 -56 3 -52 5 3 8 -10 6 -30 -1 -19 1 -38 5 -42
4 -4 7 4 7 17 0 13 5 31 10 39 8 11 9 7 5 -15 -4 -24 -3 -26 4 -10 5 11 10 27
10 36 1 22 -43 71 -50 57z m31 -33 c7 -8 8 -15 2 -15 -5 0 -15 7 -22 15 -7 8
-8 15 -2 15 5 0 15 -7 22 -15z"/>
<path d="M1081 4454 c-1 -28 -23 -45 -69 -55 l-37 -8 38 2 c20 2 37 -1 37 -5
0 -4 -9 -8 -20 -8 -11 0 -20 -4 -20 -10 0 -5 7 -10 15 -10 14 0 19 -13 27 -65
3 -12 10 -19 21 -17 19 3 24 -24 5 -30 -7 -3 -8 -9 -3 -18 14 -23 26 27 19 79
-5 36 -2 50 10 60 17 14 22 41 7 41 -5 0 -11 -7 -15 -15 -3 -8 -12 -15 -21
-15 -19 0 -19 9 1 31 9 10 14 28 11 41 -4 21 -4 21 -6 2z m-14 -156 c-2 -13
-4 -3 -4 22 0 25 2 35 4 23 2 -13 2 -33 0 -45z"/>
<path d="M4220 4425 l0 -25 263 0 c191 0 266 3 275 12 9 9 15 9 24 0 20 -20
38 -14 38 13 l0 25 -300 0 -300 0 0 -25z"/>
<path d="M5090 4430 c0 -5 5 -10 10 -10 6 0 10 5 10 10 0 6 -4 10 -10 10 -5 0
-10 -4 -10 -10z"/>
<path d="M5115 4410 c-4 -12 -5 -24 -2 -27 3 -2 8 5 12 17 4 12 5 24 2 27 -3
2 -8 -5 -12 -17z"/>
<path d="M956 4371 c-4 -5 3 -7 14 -4 23 6 26 13 6 13 -8 0 -17 -4 -20 -9z"/>
<path d="M5116 4362 c-7 -11 -4 -74 3 -66 5 5 9 74 4 74 -1 0 -4 -4 -7 -8z"/>
<path d="M5154 4359 c-3 -6 -2 -15 3 -20 5 -5 9 -1 9 11 0 23 -2 24 -12 9z"/>
<path d="M1102 4340 c0 -14 2 -19 5 -12 2 6 2 18 0 25 -3 6 -5 1 -5 -13z"/>
<path d="M952 4330 c0 -14 2 -19 5 -12 2 6 2 18 0 25 -3 6 -5 1 -5 -13z"/>
<path d="M1664 4329 c-3 -6 0 -17 8 -25 13 -13 16 -13 27 0 7 8 10 20 6 26 -8
13 -32 13 -41 -1z"/>
<path d="M1750 4320 c0 -16 5 -21 23 -18 12 2 22 10 22 18 0 8 -10 16 -22 18
-18 3 -23 -2 -23 -18z"/>
<path d="M1840 4320 c0 -13 7 -20 20 -20 13 0 20 7 20 20 0 13 -7 20 -20 20
-13 0 -20 -7 -20 -20z"/>
<path d="M1925 4330 c-4 -7 -3 -16 3 -22 14 -14 45 -2 40 15 -6 16 -34 21 -43
7z"/>
<path d="M2015 4330 c-4 -7 -3 -16 3 -22 14 -14 45 -2 40 15 -6 16 -34 21 -43
7z"/>
<path d="M5194 4332 c-8 -5 -7 -11 4 -22 14 -13 15 -12 9 3 -3 9 -2 17 3 17
11 0 13 -21 4 -44 -4 -11 -12 -13 -28 -6 -13 5 -29 4 -37 -1 -10 -6 -7 -9 13
-9 15 0 30 -5 33 -10 4 -7 11 -6 19 2 20 21 27 50 15 64 -13 16 -19 17 -35 6z"/>
<path d="M976 4268 c13 -24 37 -48 47 -48 6 0 1 9 -11 20 -12 12 -22 25 -22
30 0 6 -5 10 -11 10 -5 0 -7 -6 -3 -12z"/>
<path d="M1010 4271 c0 -5 7 -14 15 -21 16 -14 18 -10 9 14 -6 17 -24 22 -24
7z"/>
<path d="M5151 4243 c13 -15 12 -16 -8 -11 -13 4 -23 3 -23 -2 0 -15 25 -17
53 -5 l28 11 -26 12 c-35 16 -40 15 -24 -5z"/>
<path d="M1052 4220 c0 -14 2 -19 5 -12 2 6 2 18 0 25 -3 6 -5 1 -5 -13z"/>
<path d="M4225 4210 c-4 -7 -3 -16 3 -22 14 -14 45 -2 40 15 -6 16 -34 21 -43
7z"/>
<path d="M4315 4210 c-9 -15 4 -30 26 -30 12 0 19 7 19 20 0 21 -33 29 -45 10z"/>
<path d="M4405 4210 c-9 -15 4 -30 26 -30 12 0 19 7 19 20 0 21 -33 29 -45 10z"/>
<path d="M4497 4214 c-11 -11 5 -34 24 -34 12 0 19 7 19 20 0 19 -28 28 -43
14z"/>
<path d="M4590 4200 c0 -23 35 -28 43 -6 7 18 -1 26 -25 26 -11 0 -18 -7 -18
-20z"/>
<path d="M5110 4169 c-14 -6 -47 -9 -75 -7 -49 3 -50 2 -62 -32 -6 -19 -12
-64 -12 -100 -1 -87 19 -468 26 -500 5 -21 8 -18 19 25 18 64 64 343 64 387 1
94 19 32 54 -183 22 -132 43 -239 47 -239 12 0 17 63 29 305 9 191 9 227 -5
272 -14 48 -37 84 -53 82 -4 0 -18 -5 -32 -10z"/>
<path d="M1400 4130 c0 -5 5 -10 10 -10 6 0 10 5 10 10 0 6 -4 10 -10 10 -5 0
-10 -4 -10 -10z"/>
<path d="M3536 3470 c-111 -5 -88 -6 109 -6 138 0 234 1 215 2 -81 8 -192 9
-324 4z"/>
<path d="M4427 3463 c255 -2 671 -2 926 0 254 1 46 2 -463 2 -509 0 -717 -1
-463 -2z"/>
<path d="M4342 2707 c-21 -22 -22 -31 -22 -247 0 -163 3 -221 11 -213 7 7 12
75 13 190 l1 178 348 3 347 2 0 -285 0 -285 30 0 30 0 0 311 c0 306 -3 341
-34 361 -6 4 -167 8 -357 8 l-346 0 -21 -23z m372 -26 c10 -16 -6 -42 -23 -39
-9 2 -17 13 -19 26 -3 16 2 22 17 22 11 0 22 -4 25 -9z"/>
<path d="M4652 2484 c-26 -18 -30 -74 -6 -98 36 -37 114 -4 114 47 0 28 -38
67 -66 67 -11 0 -30 -7 -42 -16z"/>
<path d="M4644 2339 c-34 -10 -94 -60 -94 -78 0 -33 89 -81 150 -81 33 0 100
32 123 57 17 19 16 21 -5 48 -23 30 -91 65 -123 64 -11 0 -34 -5 -51 -10z"/>
<path d="M772 2209 c-13 -5 -26 -18 -29 -29 -3 -11 -9 -20 -14 -20 -18 0 -9
-28 10 -33 12 -3 28 4 42 19 26 28 19 31 -18 7 -21 -14 -25 -14 -20 -3 4 8 10
23 13 33 6 17 29 23 37 10 2 -5 2 -2 1 5 -3 10 182 12 909 12 802 -1 910 -3
893 -15 -15 -11 -16 -15 -5 -15 16 0 39 19 39 32 0 12 -1830 9 -1858 -3z"/>
<path d="M2632 2198 c-15 -15 -16 -35 -2 -43 6 -4 7 1 3 11 -4 11 -3 15 5 10
7 -4 10 1 9 14 -1 11 -2 20 -2 20 -1 0 -6 -5 -13 -12z"/>
<path d="M2340 2189 c0 -5 5 -7 10 -4 6 3 10 8 10 11 0 2 -4 4 -10 4 -5 0 -10
-5 -10 -11z"/>
<path d="M2420 2185 c-7 -9 -9 -22 -5 -32 5 -10 8 -20 7 -23 0 -3 8 -6 18 -6
19 0 19 1 1 21 -18 19 -18 45 0 45 4 0 5 -7 2 -17 -4 -11 -3 -14 5 -9 17 10
15 36 -2 36 -7 0 -19 -7 -26 -15z"/>
<path d="M2505 2190 c-3 -5 -1 -10 4 -10 6 0 11 5 11 10 0 6 -2 10 -4 10 -3 0
-8 -4 -11 -10z"/>
<path d="M2660 2189 c0 -8 7 -23 15 -33 11 -14 15 -16 15 -5 0 8 -7 23 -15 33
-11 14 -15 16 -15 5z"/>
<path d="M2533 2178 c-14 -18 -23 -59 -12 -52 5 3 9 11 9 19 0 8 10 21 22 29
17 12 18 16 6 16 -8 0 -20 -6 -25 -12z"/>
<path d="M2646 2144 c-3 -8 -10 -12 -16 -9 -5 3 -10 1 -10 -4 0 -6 5 -11 10
-11 6 0 10 -9 10 -20 0 -11 5 -20 11 -20 7 0 9 10 4 28 -4 17 -3 24 3 17 6 -5
12 -19 14 -30 4 -18 6 -18 12 -3 5 11 1 26 -12 43 -16 20 -21 22 -26 9z"/>
<path d="M2328 2123 c7 -3 16 -2 19 1 4 3 -2 6 -13 5 -11 0 -14 -3 -6 -6z"/>
<path d="M2548 2123 c7 -3 16 -2 19 1 4 3 -2 6 -13 5 -11 0 -14 -3 -6 -6z"/>
<path d="M4490 2075 c0 -13 26 -15 175 -15 149 0 175 2 175 15 0 13 -26 15
-175 15 -149 0 -175 -2 -175 -15z"/>
<path d="M1080 1956 c0 -18 38 -46 62 -46 24 0 23 36 -1 50 -28 15 -61 12 -61
-4z"/>
<path d="M4490 1945 c0 -8 5 -15 10 -15 6 0 10 7 10 15 0 8 -4 15 -10 15 -5 0
-10 -7 -10 -15z"/>
<path d="M4546 1953 c-11 -11 -6 -23 9 -23 8 0 15 4 15 9 0 13 -16 22 -24 14z"/>
<path d="M4600 1945 c0 -8 5 -15 10 -15 6 0 10 7 10 15 0 8 -4 15 -10 15 -5 0
-10 -7 -10 -15z"/>
<path d="M4655 1949 c-10 -15 3 -25 16 -12 7 7 7 13 1 17 -6 3 -14 1 -17 -5z"/>
<path d="M4706 1953 c-11 -11 -6 -23 9 -23 8 0 15 4 15 9 0 13 -16 22 -24 14z"/>
<path d="M1670 1943 c-50 -18 -81 -83 -59 -125 32 -64 102 -77 150 -29 47 48
38 116 -21 146 -30 16 -45 17 -70 8z"/>
<path d="M4325 1938 c-9 -23 -1 -208 9 -208 5 0 9 47 9 105 -1 102 -6 134 -18
103z"/>
<path d="M4670 1819 c0 -5 5 -7 10 -4 6 3 10 8 10 11 0 2 -4 4 -10 4 -5 0 -10
-5 -10 -11z"/>
<path d="M4710 1811 c0 -11 5 -23 10 -26 6 -3 10 3 10 14 0 11 -4 23 -10 26
-5 3 -10 -3 -10 -14z"/>
<path d="M4740 1808 c0 -19 2 -20 10 -8 13 19 13 30 0 30 -5 0 -10 -10 -10
-22z"/>
<path d="M4775 1820 c3 -5 8 -10 11 -10 2 0 4 5 4 10 0 6 -5 10 -11 10 -5 0
-7 -4 -4 -10z"/>
<path d="M4508 1809 c-42 -24 -5 -88 43 -76 10 3 19 1 19 -4 0 -4 29 -7 65 -6
36 1 64 6 62 11 -4 13 -47 15 -81 3 -21 -7 -30 -6 -36 3 -4 7 -13 9 -19 6 -19
-12 -49 4 -54 29 -4 25 8 35 16 13 2 -7 3 -5 2 4 -2 9 5 19 14 21 12 4 13 5 1
6 -8 0 -23 -4 -32 -10z"/>
<path d="M4578 1813 c12 -2 30 -2 40 0 9 3 -1 5 -23 4 -22 0 -30 -2 -17 -4z"/>
<path d="M4846 1812 c6 -4 18 -20 27 -37 15 -27 16 -28 17 -7 0 12 -6 22 -12
22 -10 0 -10 2 0 9 11 7 10 10 -3 15 -24 9 -43 8 -29 -2z"/>
<path d="M4728 1772 c-27 -5 -23 -47 4 -49 17 -2 19 0 8 7 -8 5 -11 13 -6 17
4 4 13 0 20 -10 14 -18 41 -23 51 -8 3 5 0 13 -6 17 -8 4 -9 3 -5 -4 4 -7 1
-12 -8 -12 -8 0 -21 10 -28 23 -8 14 -20 21 -30 19z"/>
<path d="M4836 1755 c-10 -7 -16 -17 -15 -22 2 -4 15 2 28 15 26 24 17 30 -13
7z"/>
<path d="M4840 1730 c0 -5 7 -7 15 -4 8 4 15 8 15 10 0 2 -7 4 -15 4 -8 0 -15
-4 -15 -10z"/>
<path d="M1605 1711 c-47 -23 -75 -47 -98 -82 -16 -25 -16 -26 14 -57 92 -94
241 -97 347 -8 17 15 32 35 32 45 0 18 -47 66 -94 96 -45 28 -151 31 -201 6z"/>
<path d="M1110 1570 c0 -62 -21 -143 -53 -206 -32 -61 -113 -144 -173 -175
-41 -21 -44 -24 -28 -36 9 -7 21 -10 25 -7 5 3 9 -3 9 -12 0 -34 30 -560 34
-606 5 -44 4 -47 -21 -50 -47 -5 -39 -28 10 -28 l45 0 0 40 c1 22 3 48 6 58 7
24 61 338 86 502 27 181 31 197 40 179 16 -31 270 -747 270 -763 0 -13 10 -16
51 -16 45 0 50 2 39 15 -7 8 -23 15 -36 15 -13 0 -24 2 -24 5 0 66 -96 619
-134 775 -45 181 -51 194 -79 185 -12 -4 -35 -9 -51 -12 -25 -5 -28 -3 -23 11
4 10 7 22 7 27 0 5 8 9 19 9 14 0 20 10 25 44 9 58 -1 96 -25 96 -16 0 -19 -8
-19 -50z"/>
<path d="M4488 1455 l4 -55 281 0 c312 1 314 1 324 64 l6 36 -39 0 c-22 1
-160 3 -309 6 l-270 5 3 -56z"/>
<path d="M1324 1295 c-3 -8 -3 -19 1 -25 4 -6 121 -10 351 -10 l344 0 0 25 0
25 -345 0 c-293 0 -346 -2 -351 -15z"/>
<path d="M1331 1036 c-9 -11 -8 -17 4 -30 20 -20 47 -9 43 18 -4 25 -30 32
-47 12z"/>
<path d="M1433 1034 c-3 -8 2 -23 11 -32 14 -15 18 -15 31 -1 9 9 13 23 9 32
-8 21 -43 22 -51 1z"/>
<path d="M1537 1037 c-3 -9 0 -22 6 -32 17 -22 49 -9 45 19 -4 25 -43 34 -51
13z"/>
<path d="M1647 1043 c-13 -12 -7 -41 10 -47 21 -9 46 16 37 37 -6 17 -35 23
-47 10z"/>
<path d="M1746 1034 c-4 -10 -1 -24 7 -31 19 -19 49 -5 45 21 -4 27 -43 34
-52 10z"/>
<path d="M520 439 c0 -5 546 -9 1225 -9 820 0 1225 3 1225 10 0 7 -404 10
-1225 9 -678 -1 -1225 -6 -1225 -10z"/>
<path d="M3590 440 l-175 -6 220 -1 c121 -1 216 0 210 2 -24 8 -91 10 -255 5z"/>
<path d="M4298 433 c226 -2 598 -2 825 0 226 1 41 2 -413 2 -454 0 -639 -1
-412 -2z"/>
</g>
</svg>
